<svg width="600" height="450" viewBox="0 0 600 450" fill="none" xmlns="http://www.w3.org/2000/svg">
<rect width="600" height="450" fill="white"/>
<rect x="153" y="21" width="300" height="290" fill="#D9D9D9"/>
<rect x="169" y="36" width="80" height="80" fill="#F5F2F2"/>
<rect x="263" y="36" width="80" height="80" fill="#F5F2F2"/>
<rect x="357" y="36" width="80" height="80" fill="#F5F2F2"/>
<rect x="169" y="126" width="80" height="80" fill="#F5F2F2"/>
<rect x="263" y="126" width="80" height="80" fill="#F5F2F2"/>
<rect x="357" y="126" width="80" height="80" fill="#F5F2F2"/>
<rect x="169" y="216" width="80" height="80" fill="#F5F2F2"/>
<rect x="263" y="216" width="80" height="80" fill="#F5F2F2"/>
<rect x="357" y="216" width="80" height="80" fill="#F5F2F2"/>
<rect x="153" y="345" width="136" height="40" fill="#D9D9D9"/>
<rect x="317" y="345" width="136" height="40" fill="#D9D9D9"/>
<path d="M169.32 358.896L170.256 359.076C169.824 359.748 169.296 360.456 168.876 360.948L168.132 360.756C168.54 360.24 169.056 359.448 169.32 358.896ZM171.996 359.616L172.656 359.244C173.628 359.832 174.828 360.72 175.428 361.344L174.72 361.752C174.156 361.14 172.98 360.216 171.996 359.616ZM168.42 362.4L169.08 362.184C169.416 362.616 169.788 363.204 169.944 363.6L169.26 363.852C169.128 363.456 168.768 362.844 168.42 362.4ZM166.38 360.492C168.276 360.456 171.252 360.36 174.072 360.252L174.036 360.948C171.288 361.08 168.372 361.188 166.428 361.248L166.38 360.492ZM167.436 361.464L168.252 361.68C167.868 362.364 167.436 363.144 167.076 363.648L166.464 363.444C166.812 362.904 167.22 362.052 167.436 361.464ZM165.636 363.252C166.572 363.216 167.904 363.12 169.26 363.012L169.272 363.648C167.976 363.768 166.704 363.876 165.708 363.96L165.636 363.252ZM174.432 362.352L175.08 362.064C175.62 362.592 176.196 363.324 176.448 363.852L175.764 364.176C175.524 363.66 174.96 362.904 174.432 362.352ZM173.184 361.428L174.012 361.644C173.676 362.304 173.292 363.072 172.968 363.564L172.356 363.36C172.644 362.82 173.004 362.004 173.184 361.428ZM172.104 363.168C173.028 363.132 174.336 363.06 175.68 362.976V363.564C174.48 363.672 173.244 363.78 172.272 363.864L172.104 363.168ZM171.324 364.32L171.996 364.656C171 365.436 169.392 366.144 168.072 366.54C167.94 366.372 167.736 366.132 167.556 365.976C168.84 365.628 170.448 364.992 171.324 364.32ZM172.632 365.484L173.328 365.832C172.092 366.876 170.016 367.68 168.108 368.136C168 367.944 167.808 367.656 167.628 367.476C169.464 367.104 171.528 366.384 172.632 365.484ZM174.048 366.696L174.804 367.056C173.316 368.64 170.556 369.54 167.52 369.972C167.436 369.756 167.256 369.432 167.088 369.228C170.016 368.88 172.716 368.076 174.048 366.696ZM170.928 362.856C169.896 364.164 167.892 365.472 165.828 366.228C165.744 366.036 165.564 365.748 165.408 365.568C167.532 364.872 169.512 363.516 170.484 362.148H171.288C172.584 363.72 174.708 364.908 176.616 365.424C176.436 365.616 176.268 365.916 176.16 366.12C174.264 365.508 172.128 364.272 170.928 362.856ZM182.532 358.92H183.432V360.084H182.532V358.92ZM177.84 359.652H188.196V361.524H187.332V360.372H178.668V361.524H177.84V359.652ZM180.672 360.576H181.512V363.672H180.672V360.576ZM184.464 360.576H185.304V363.672H184.464V360.576ZM178.92 361.104H187.056V361.68H178.92V361.104ZM179.112 362.196H186.912V362.748H179.112V362.196ZM177.708 363.288H188.316V363.96H177.708V363.288ZM180.864 363.492L181.524 363.768C180.72 364.776 179.232 365.7 177.924 366.156C177.804 365.94 177.552 365.652 177.384 365.484C178.668 365.124 180.12 364.332 180.864 363.492ZM185.244 363.456C185.952 364.308 187.356 365.064 188.676 365.4C188.484 365.568 188.232 365.88 188.112 366.096C186.768 365.664 185.352 364.74 184.584 363.732L185.244 363.456ZM180.456 366.18V366.768H185.484V366.18H180.456ZM180.456 367.272V367.872H185.484V367.272H180.456ZM180.456 365.1V365.676H185.484V365.1H180.456ZM179.628 364.572H186.348V368.4H179.628V364.572ZM183.804 368.772L184.416 368.268C185.784 368.652 187.272 369.12 188.184 369.468L187.404 369.972C186.588 369.636 185.208 369.18 183.804 368.772ZM181.368 368.244L182.112 368.724C181.116 369.252 179.472 369.72 178.14 369.96C178.02 369.792 177.768 369.516 177.6 369.36C178.932 369.144 180.588 368.676 181.368 368.244ZM189.648 362.784H200.34V363.588H189.648V362.784ZM190.704 360.432H197.652V361.236H190.704V360.432ZM192.648 366.804H198.3V367.524H192.648V366.804ZM192.648 368.796H198.3V369.576H192.648V368.796ZM193.788 358.92H194.664V363.216H193.788V358.92ZM199.044 359.34L199.812 359.748C197.4 362.904 193.788 365.268 189.948 366.744C189.84 366.54 189.552 366.168 189.372 365.988C193.248 364.644 196.824 362.316 199.044 359.34ZM192.156 364.86H198.876V369.924H197.94V365.616H193.056V369.972H192.156V364.86ZM202.415 369H201.307L204.511 360.273H205.602L208.807 369H207.699L205.091 361.653H205.023L202.415 369ZM202.824 365.591H207.29V366.528H202.824V365.591Z" fill="black"/>
<path d="M333.32 358.896L334.256 359.076C333.824 359.748 333.296 360.456 332.876 360.948L332.132 360.756C332.54 360.24 333.056 359.448 333.32 358.896ZM335.996 359.616L336.656 359.244C337.628 359.832 338.828 360.72 339.428 361.344L338.72 361.752C338.156 361.14 336.98 360.216 335.996 359.616ZM332.42 362.4L333.08 362.184C333.416 362.616 333.788 363.204 333.944 363.6L333.26 363.852C333.128 363.456 332.768 362.844 332.42 362.4ZM330.38 360.492C332.276 360.456 335.252 360.36 338.072 360.252L338.036 360.948C335.288 361.08 332.372 361.188 330.428 361.248L330.38 360.492ZM331.436 361.464L332.252 361.68C331.868 362.364 331.436 363.144 331.076 363.648L330.464 363.444C330.812 362.904 331.22 362.052 331.436 361.464ZM329.636 363.252C330.572 363.216 331.904 363.12 333.26 363.012L333.272 363.648C331.976 363.768 330.704 363.876 329.708 363.96L329.636 363.252ZM338.432 362.352L339.08 362.064C339.62 362.592 340.196 363.324 340.448 363.852L339.764 364.176C339.524 363.66 338.96 362.904 338.432 362.352ZM337.184 361.428L338.012 361.644C337.676 362.304 337.292 363.072 336.968 363.564L336.356 363.36C336.644 362.82 337.004 362.004 337.184 361.428ZM336.104 363.168C337.028 363.132 338.336 363.06 339.68 362.976V363.564C338.48 363.672 337.244 363.78 336.272 363.864L336.104 363.168ZM335.324 364.32L335.996 364.656C335 365.436 333.392 366.144 332.072 366.54C331.94 366.372 331.736 366.132 331.556 365.976C332.84 365.628 334.448 364.992 335.324 364.32ZM336.632 365.484L337.328 365.832C336.092 366.876 334.016 367.68 332.108 368.136C332 367.944 331.808 367.656 331.628 367.476C333.464 367.104 335.528 366.384 336.632 365.484ZM338.048 366.696L338.804 367.056C337.316 368.64 334.556 369.54 331.52 369.972C331.436 369.756 331.256 369.432 331.088 369.228C334.016 368.88 336.716 368.076 338.048 366.696ZM334.928 362.856C333.896 364.164 331.892 365.472 329.828 366.228C329.744 366.036 329.564 365.748 329.408 365.568C331.532 364.872 333.512 363.516 334.484 362.148H335.288C336.584 363.72 338.708 364.908 340.616 365.424C340.436 365.616 340.268 365.916 340.16 366.12C338.264 365.508 336.128 364.272 334.928 362.856ZM346.532 358.92H347.432V360.084H346.532V358.92ZM341.84 359.652H352.196V361.524H351.332V360.372H342.668V361.524H341.84V359.652ZM344.672 360.576H345.512V363.672H344.672V360.576ZM348.464 360.576H349.304V363.672H348.464V360.576ZM342.92 361.104H351.056V361.68H342.92V361.104ZM343.112 362.196H350.912V362.748H343.112V362.196ZM341.708 363.288H352.316V363.96H341.708V363.288ZM344.864 363.492L345.524 363.768C344.72 364.776 343.232 365.7 341.924 366.156C341.804 365.94 341.552 365.652 341.384 365.484C342.668 365.124 344.12 364.332 344.864 363.492ZM349.244 363.456C349.952 364.308 351.356 365.064 352.676 365.4C352.484 365.568 352.232 365.88 352.112 366.096C350.768 365.664 349.352 364.74 348.584 363.732L349.244 363.456ZM344.456 366.18V366.768H349.484V366.18H344.456ZM344.456 367.272V367.872H349.484V367.272H344.456ZM344.456 365.1V365.676H349.484V365.1H344.456ZM343.628 364.572H350.348V368.4H343.628V364.572ZM347.804 368.772L348.416 368.268C349.784 368.652 351.272 369.12 352.184 369.468L351.404 369.972C350.588 369.636 349.208 369.18 347.804 368.772ZM345.368 368.244L346.112 368.724C345.116 369.252 343.472 369.72 342.14 369.96C342.02 369.792 341.768 369.516 341.6 369.36C342.932 369.144 344.588 368.676 345.368 368.244ZM353.648 362.784H364.34V363.588H353.648V362.784ZM354.704 360.432H361.652V361.236H354.704V360.432ZM356.648 366.804H362.3V367.524H356.648V366.804ZM356.648 368.796H362.3V369.576H356.648V368.796ZM357.788 358.92H358.664V363.216H357.788V358.92ZM363.044 359.34L363.812 359.748C361.4 362.904 357.788 365.268 353.948 366.744C353.84 366.54 353.552 366.168 353.372 365.988C357.248 364.644 360.824 362.316 363.044 359.34ZM356.156 364.86H362.876V369.924H361.94V365.616H357.056V369.972H356.156V364.86ZM366.057 369V360.273H369.108C369.716 360.273 370.217 360.378 370.612 360.588C371.007 360.795 371.301 361.075 371.494 361.428C371.688 361.777 371.784 362.165 371.784 362.591C371.784 362.966 371.717 363.276 371.584 363.52C371.453 363.764 371.28 363.957 371.064 364.099C370.851 364.241 370.619 364.347 370.369 364.415V364.5C370.636 364.517 370.905 364.611 371.175 364.781C371.445 364.952 371.67 365.196 371.852 365.514C372.034 365.832 372.125 366.222 372.125 366.682C372.125 367.119 372.026 367.513 371.827 367.862C371.628 368.212 371.314 368.489 370.885 368.693C370.456 368.898 369.898 369 369.21 369H366.057ZM367.114 368.062H369.21C369.901 368.062 370.391 367.929 370.68 367.662C370.973 367.392 371.119 367.065 371.119 366.682C371.119 366.386 371.044 366.114 370.893 365.864C370.743 365.611 370.528 365.409 370.25 365.259C369.972 365.105 369.642 365.028 369.261 365.028H367.114V368.062ZM367.114 364.108H369.074C369.392 364.108 369.679 364.045 369.935 363.92C370.193 363.795 370.398 363.619 370.548 363.392C370.702 363.165 370.778 362.898 370.778 362.591C370.778 362.207 370.645 361.882 370.378 361.615C370.111 361.345 369.688 361.21 369.108 361.21H367.114V364.108Z" fill="black"/>
<rect x="216" y="355" width="62" height="20" fill="white"/>
<rect x="380" y="355" width="62" height="20" fill="white"/>
<g clip-path="url(#clip0_1_2)">
<path d="M69.1 394.542C85.6685 394.542 99.1 381.111 99.1 364.542C99.1 347.974 85.6685 334.542 69.1 334.542C52.5315 334.542 39.1 347.974 39.1 364.542C39.1 381.111 52.5315 394.542 69.1 394.542Z" stroke="black" stroke-width="20"/>
</g>
<g clip-path="url(#clip1_1_2)">
<path d="M494.812 333.9L554.051 392.651" stroke="black" stroke-width="20"/>
<path d="M495.056 392.895L553.807 333.656" stroke="black" stroke-width="20"/>
</g>
<defs>
<clipPath id="clip0_1_2">
<rect width="90" height="90" fill="white" transform="translate(25 320)"/>
</clipPath>
<clipPath id="clip1_1_2">
<rect width="85" height="85" fill="white" transform="translate(481 322)"/>
</clipPath>
</defs>
</svg>
