<svg width="600" height="400" viewBox="0 0 600 400" fill="none" xmlns="http://www.w3.org/2000/svg">
<rect width="600" height="400" fill="white"/>
<rect x="153" y="21" width="300" height="290" fill="#D9D9D9"/>
<rect x="169" y="36" width="80" height="80" fill="#F5F2F2"/>
<rect x="263" y="36" width="80" height="80" fill="#F5F2F2"/>
<rect x="357" y="36" width="80" height="80" fill="#F5F2F2"/>
<rect x="169" y="126" width="80" height="80" fill="#F5F2F2"/>
<rect x="263" y="126" width="80" height="80" fill="#F5F2F2"/>
<rect x="357" y="126" width="80" height="80" fill="#F5F2F2"/>
<rect x="169" y="216" width="80" height="80" fill="#F5F2F2"/>
<rect x="263" y="216" width="80" height="80" fill="#F5F2F2"/>
<rect x="357" y="216" width="80" height="80" fill="#F5F2F2"/>
<path d="M65.1 310.542C81.6685 310.542 95.1 297.111 95.1 280.542C95.1 263.974 81.6685 250.542 65.1 250.542C48.5315 250.542 35.1 263.974 35.1 280.542C35.1 297.111 48.5315 310.542 65.1 310.542Z" stroke="black" stroke-width="20"/>
<g clip-path="url(#clip0_1_2)">
<path d="M490.812 249.9L550.051 308.651" stroke="black" stroke-width="20"/>
<path d="M491.056 308.895L549.807 249.656" stroke="black" stroke-width="20"/>
</g>
<defs>
<clipPath id="clip0_1_2">
<rect width="75" height="74" fill="white" transform="translate(483 242)"/>
</clipPath>
</defs>
</svg>
